#define a_width 8
#define a_height 8
static unsigned char a_bits[] = {
   0x00, 0x00, 0x3c, 0x60, 0x7c, 0x66, 0x7c, 0x00};
