#define A_width 8
#define A_height 8
static unsigned char A_bits[] = {
   0x18, 0x3c, 0x66, 0x7e, 0x66, 0x66, 0x66, 0x00};
