#define at_width 8
#define at_height 8
static unsigned char at_bits[] = {
   0x3c, 0x66, 0x76, 0x76, 0x06, 0x46, 0x3c, 0x00};
