#define b_width 8
#define b_height 8
static unsigned char b_bits[] = {
   0x00, 0x06, 0x06, 0x3e, 0x66, 0x66, 0x3e, 0x00};
