#define B_width 8
#define B_height 8
static unsigned char B_bits[] = {
   0x3e, 0x66, 0x66, 0x3e, 0x66, 0x66, 0x3e, 0x00};
