#define bang_width 8
#define bang_height 8
static unsigned char bang_bits[] = {
   0x18, 0x18, 0x18, 0x18, 0x00, 0x00, 0x18, 0x00};
