#define C_width 8
#define C_height 8
static unsigned char C_bits[] = {
   0x3c, 0x66, 0x06, 0x06, 0x06, 0x66, 0x3c, 0x00};
