#define c_width 8
#define c_height 8
static unsigned char c_bits[] = {
   0x00, 0x00, 0x3c, 0x06, 0x06, 0x06, 0x3c, 0x00};
