#define carat_width 8
#define carat_height 8
static unsigned char carat_bits[] = {
   0x00, 0x18, 0x3c, 0x66, 0x00, 0x00, 0x00, 0x00};
