#define club_width 8
#define club_height 8
static unsigned char club_bits[] = {
   0x18, 0x18, 0x66, 0x66, 0x18, 0x18, 0x3c, 0x00};
