#define colon_width 8
#define colon_height 8
static unsigned char colon_bits[] = {
   0x00, 0x00, 0x18, 0x00, 0x00, 0x18, 0x00, 0x00};
