#define comma_width 8
#define comma_height 8
static unsigned char comma_bits[] = {
   0x00, 0x00, 0x00, 0x00, 0x00, 0x18, 0x18, 0x0c};
