#define d_width 8
#define d_height 8
static unsigned char d_bits[] = {
   0x00, 0x60, 0x60, 0x7c, 0x66, 0x66, 0x7c, 0x00};
