#define D_width 8
#define D_height 8
static unsigned char D_bits[] = {
   0x1e, 0x36, 0x66, 0x66, 0x66, 0x36, 0x1e, 0x00};
