#define diamond_width 8
#define diamond_height 8
static unsigned char diamond_bits[] = {
   0x10, 0x38, 0x7c, 0xfe, 0x7c, 0x38, 0x10, 0x00};
