#define dollar_width 8
#define dollar_height 8
static unsigned char dollar_bits[] = {
   0x18, 0x7c, 0x06, 0x3c, 0x60, 0x3e, 0x18, 0x00};
