#define double_quote_width 8
#define double_quote_height 8
static unsigned char double_quote_bits[] = {
   0x66, 0x66, 0x66, 0x00, 0x00, 0x00, 0x00, 0x00};
