#define E_width 8
#define E_height 8
static unsigned char E_bits[] = {
   0x7e, 0x06, 0x06, 0x1e, 0x06, 0x06, 0x7e, 0x00};
