#define e_width 8
#define e_height 8
static unsigned char e_bits[] = {
   0x00, 0x00, 0x3c, 0x66, 0x7e, 0x06, 0x3c, 0x00};
