#define eight_width 8
#define eight_height 8
static unsigned char eight_bits[] = {
   0x3c, 0x66, 0x66, 0x3c, 0x66, 0x66, 0x3c, 0x00};
