#define equals_width 8
#define equals_height 8
static unsigned char equals_bits[] = {
   0x00, 0x00, 0x7e, 0x00, 0x7e, 0x00, 0x00, 0x00};
