#define f_width 8
#define f_height 8
static unsigned char f_bits[] = {
   0x00, 0x70, 0x18, 0x7c, 0x18, 0x18, 0x18, 0x00};
