#define F_width 8
#define F_height 8
static unsigned char F_bits[] = {
   0x7e, 0x06, 0x06, 0x1e, 0x06, 0x06, 0x06, 0x00};
