#define five_width 8
#define five_height 8
static unsigned char five_bits[] = {
   0x7e, 0x06, 0x3e, 0x60, 0x60, 0x66, 0x3c, 0x00};
