#define four_width 8
#define four_height 8
static unsigned char four_bits[] = {
   0x60, 0x70, 0x78, 0x66, 0xfe, 0x60, 0x60, 0x00};
