#define G_width 8
#define G_height 8
static unsigned char G_bits[] = {
   0x3c, 0x66, 0x06, 0x76, 0x66, 0x66, 0x3c, 0x00};
