#define g_width 8
#define g_height 8
static unsigned char g_bits[] = {
   0x00, 0x00, 0x7c, 0x66, 0x66, 0x7c, 0x60, 0x3e};
