#define greater_than_width 8
#define greater_than_height 8
static unsigned char greater_than_bits[] = {
   0x0e, 0x18, 0x30, 0x60, 0x30, 0x18, 0x0e, 0x00};
