#define H_width 8
#define H_height 8
static unsigned char H_bits[] = {
   0x66, 0x66, 0x66, 0x7e, 0x66, 0x66, 0x66, 0x00};
