#define h_width 8
#define h_height 8
static unsigned char h_bits[] = {
   0x00, 0x06, 0x06, 0x3e, 0x66, 0x66, 0x66, 0x00};
