#define I_width 8
#define I_height 8
static unsigned char I_bits[] = {
   0x3c, 0x18, 0x18, 0x18, 0x18, 0x18, 0x3c, 0x00};
