#define i_width 8
#define i_height 8
static unsigned char i_bits[] = {
   0x00, 0x18, 0x00, 0x1c, 0x18, 0x18, 0x3c, 0x00};
