#define J_width 8
#define J_height 8
static unsigned char J_bits[] = {
   0x78, 0x30, 0x30, 0x30, 0x30, 0x36, 0x1c, 0x00};
