#define j_width 8
#define j_height 8
static unsigned char j_bits[] = {
   0x00, 0x60, 0x00, 0x60, 0x60, 0x60, 0x60, 0x3c};
