#define k_width 8
#define k_height 8
static unsigned char k_bits[] = {
   0x00, 0x06, 0x06, 0x36, 0x1e, 0x36, 0x66, 0x00};
