#define K_width 8
#define K_height 8
static unsigned char K_bits[] = {
   0x66, 0x36, 0x1e, 0x0e, 0x1e, 0x36, 0x66, 0x00};
