#define L_width 8
#define L_height 8
static unsigned char L_bits[] = {
   0x06, 0x06, 0x06, 0x06, 0x06, 0x06, 0x7e, 0x00};
