#define l_width 8
#define l_height 8
static unsigned char l_bits[] = {
   0x00, 0x1c, 0x18, 0x18, 0x18, 0x18, 0x3c, 0x00};
