#define l_curly_width 8
#define l_curly_height 8
static unsigned char l_curly_bits[] = {
   0x30, 0x18, 0x18, 0x0c, 0x18, 0x18, 0x30, 0x00};
