#define left_arrow_width 8
#define left_arrow_height 8
static unsigned char left_arrow_bits[] = {
   0x00, 0x04, 0x06, 0x7f, 0x7f, 0x06, 0x04, 0x00};
