#define left_quote_width 8
#define left_quote_height 8
static unsigned char left_quote_bits[] = {
   0x06, 0x0c, 0x18, 0x00, 0x00, 0x00, 0x00, 0x00};
