#define less_than_width 8
#define less_than_height 8
static unsigned char less_than_bits[] = {
   0x70, 0x18, 0x0c, 0x06, 0x0c, 0x18, 0x70, 0x00};
