#define m_width 8
#define m_height 8
static unsigned char m_bits[] = {
   0x00, 0x00, 0x66, 0xfe, 0xfe, 0xd6, 0xc6, 0x00};
