#define M_width 8
#define M_height 8
static unsigned char M_bits[] = {
   0x63, 0x77, 0x7f, 0x6b, 0x63, 0x63, 0x63, 0x00};
