#define n_width 8
#define n_height 8
static unsigned char n_bits[] = {
   0x00, 0x00, 0x3e, 0x66, 0x66, 0x66, 0x66, 0x00};
