#define N_width 8
#define N_height 8
static unsigned char N_bits[] = {
   0x66, 0x6e, 0x7e, 0x7e, 0x76, 0x66, 0x66, 0x00};
