#define nine_width 8
#define nine_height 8
static unsigned char nine_bits[] = {
   0x3c, 0x66, 0x66, 0x7c, 0x60, 0x66, 0x3c, 0x00};
