#define number_width 8
#define number_height 8
static unsigned char number_bits[] = {
   0x66, 0x66, 0xff, 0x66, 0xff, 0x66, 0x66, 0x00};
