#define o_width 8
#define o_height 8
static unsigned char o_bits[] = {
   0x00, 0x00, 0x3c, 0x66, 0x66, 0x66, 0x3c, 0x00};
