#define O_width 8
#define O_height 8
static unsigned char O_bits[] = {
   0x3c, 0x66, 0x66, 0x66, 0x66, 0x66, 0x3c, 0x00};
