#define one_width 8
#define one_height 8
static unsigned char one_bits[] = {
   0x18, 0x18, 0x1c, 0x18, 0x18, 0x18, 0x7e, 0x00};
