#define p_width 8
#define p_height 8
static unsigned char p_bits[] = {
   0x00, 0x00, 0x3e, 0x66, 0x66, 0x3e, 0x06, 0x06};
