#define P_width 8
#define P_height 8
static unsigned char P_bits[] = {
   0x3e, 0x66, 0x66, 0x3e, 0x06, 0x06, 0x06, 0x00};
