#define period_width 8
#define period_height 8
static unsigned char period_bits[] = {
   0x00, 0x00, 0x00, 0x00, 0x00, 0x18, 0x18, 0x00};
