#define pi_width 8
#define pi_height 8
static unsigned char pi_bits[] = {
   0x00, 0x00, 0xc0, 0x7c, 0x6e, 0x6c, 0x6c, 0x00};
