#define pipe_width 8
#define pipe_height 8
static unsigned char pipe_bits[] = {
   0x18, 0x18, 0x18, 0x18, 0x18, 0x18, 0x18, 0x18};
