#define plus_width 8
#define plus_height 8
static unsigned char plus_bits[] = {
   0x00, 0x18, 0x18, 0x7e, 0x18, 0x18, 0x00, 0x00};
