#define pound_width 8
#define pound_height 8
static unsigned char pound_bits[] = {
   0x30, 0x48, 0x0c, 0x3e, 0x0c, 0x46, 0x3f, 0x00};
