#define q_width 8
#define q_height 8
static unsigned char q_bits[] = {
   0x00, 0x00, 0x7c, 0x66, 0x66, 0x7c, 0x60, 0x60};
