#define Q_width 8
#define Q_height 8
static unsigned char Q_bits[] = {
   0x3c, 0x66, 0x66, 0x66, 0x66, 0x3c, 0x70, 0x00};
