#define question_width 8
#define question_height 8
static unsigned char question_bits[] = {
   0x3c, 0x66, 0x60, 0x30, 0x18, 0x00, 0x18, 0x00};
