#define quote_width 8
#define quote_height 8
static unsigned char quote_bits[] = {
   0x60, 0x30, 0x18, 0x00, 0x00, 0x00, 0x00, 0x00};
