#define R_width 8
#define R_height 8
static unsigned char R_bits[] = {
   0x3e, 0x66, 0x66, 0x3e, 0x1e, 0x36, 0x66, 0x00};
