#define r_width 8
#define r_height 8
static unsigned char r_bits[] = {
   0x00, 0x00, 0x3e, 0x66, 0x06, 0x06, 0x06, 0x00};
