#define r_paren_width 8
#define r_paren_height 8
static unsigned char r_paren_bits[] = {
   0x0c, 0x18, 0x30, 0x30, 0x30, 0x18, 0x0c, 0x00};
