#define S_width 8
#define S_height 8
static unsigned char S_bits[] = {
   0x3c, 0x66, 0x06, 0x3c, 0x60, 0x66, 0x3c, 0x00};
