#define s_width 8
#define s_height 8
static unsigned char s_bits[] = {
   0x00, 0x00, 0x7c, 0x06, 0x3c, 0x60, 0x3e, 0x00};
