#define semi_colon_width 8
#define semi_colon_height 8
static unsigned char semi_colon_bits[] = {
   0x00, 0x00, 0x18, 0x00, 0x00, 0x18, 0x18, 0x0c};
