#define seven_width 8
#define seven_height 8
static unsigned char seven_bits[] = {
   0x7e, 0x66, 0x30, 0x18, 0x18, 0x18, 0x18, 0x00};
