#define six_width 8
#define six_height 8
static unsigned char six_bits[] = {
   0x3c, 0x66, 0x06, 0x3e, 0x66, 0x66, 0x3c, 0x00};
