#define slash_width 8
#define slash_height 8
static unsigned char slash_bits[] = {
   0x00, 0xc0, 0x60, 0x30, 0x18, 0x0c, 0x06, 0x00};
