#define spade_width 8
#define spade_height 8
static unsigned char spade_bits[] = {
   0x10, 0x38, 0x7c, 0xfe, 0xfe, 0x38, 0x7c, 0x00};
