#define T_width 8
#define T_height 8
static unsigned char T_bits[] = {
   0x7e, 0x18, 0x18, 0x18, 0x18, 0x18, 0x18, 0x00};
