#define t_width 8
#define t_height 8
static unsigned char t_bits[] = {
   0x00, 0x18, 0x7e, 0x18, 0x18, 0x18, 0x70, 0x00};
