#define three_width 8
#define three_height 8
static unsigned char three_bits[] = {
   0x3c, 0x66, 0x60, 0x38, 0x60, 0x66, 0x3c, 0x00};
