#define tilde_width 8
#define tilde_height 8
static unsigned char tilde_bits[] = {
   0x00, 0x4c, 0x7e, 0x32, 0x00, 0x00, 0x00, 0x00};
