#define U_width 8
#define U_height 8
static unsigned char U_bits[] = {
   0x66, 0x66, 0x66, 0x66, 0x66, 0x66, 0x3c, 0x00};
