#define u_width 8
#define u_height 8
static unsigned char u_bits[] = {
   0x00, 0x00, 0x66, 0x66, 0x66, 0x66, 0x7c, 0x00};
