#define underscore_width 8
#define underscore_height 8
static unsigned char underscore_bits[] = {
   0x00, 0x00, 0x00, 0x00, 0x00, 0x00, 0xff, 0x00};
