#define up_arrow_width 8
#define up_arrow_height 8
static unsigned char up_arrow_bits[] = {
   0x00, 0x18, 0x3c, 0x7e, 0x18, 0x18, 0x18, 0x18};
