#define v_width 8
#define v_height 8
static unsigned char v_bits[] = {
   0x00, 0x00, 0x66, 0x66, 0x66, 0x3c, 0x18, 0x00};
