#define V_width 8
#define V_height 8
static unsigned char V_bits[] = {
   0x66, 0x66, 0x66, 0x66, 0x66, 0x3c, 0x18, 0x00};
