#define w_width 8
#define w_height 8
static unsigned char w_bits[] = {
   0x00, 0x00, 0xc6, 0xd6, 0xfe, 0x7c, 0x6c, 0x00};
