#define W_width 8
#define W_height 8
static unsigned char W_bits[] = {
   0x63, 0x63, 0x63, 0x6b, 0x7f, 0x77, 0x63, 0x00};
