#define X_width 8
#define X_height 8
static unsigned char X_bits[] = {
   0x66, 0x66, 0x3c, 0x18, 0x3c, 0x66, 0x66, 0x00};
