#define xcursor_width 34
#define xcursor_height 28
#define xcursor_x_hot 16
#define xcursor_y_hot 13
static unsigned char xcursor_bits[] = {
   0x00, 0x00, 0x00, 0x00, 0x00, 0xfe, 0x01, 0x00, 0x80, 0x01, 0xfe, 0x03,
   0x00, 0xc0, 0x01, 0xfc, 0x07, 0x00, 0xe0, 0x00, 0xf8, 0x0f, 0x00, 0x70,
   0x00, 0xf0, 0x1f, 0x00, 0x38, 0x00, 0xe0, 0x3f, 0x00, 0x1c, 0x00, 0xc0,
   0x7f, 0x00, 0x0e, 0x00, 0x80, 0xff, 0x00, 0x07, 0x00, 0x00, 0xff, 0x81,
   0x03, 0x00, 0x00, 0xfe, 0xc3, 0x01, 0x00, 0x00, 0xfc, 0xe3, 0x00, 0x00,
   0x00, 0xf8, 0x71, 0x00, 0x00, 0x00, 0xf0, 0x38, 0x00, 0x00, 0x00, 0x70,
   0x3c, 0x00, 0x00, 0x00, 0x38, 0x7e, 0x00, 0x00, 0x00, 0x1c, 0xff, 0x00,
   0x00, 0x00, 0x0e, 0xff, 0x01, 0x00, 0x00, 0x07, 0xfe, 0x03, 0x00, 0x80,
   0x03, 0xfc, 0x07, 0x00, 0xc0, 0x01, 0xf8, 0x0f, 0x00, 0xe0, 0x00, 0xf0,
   0x1f, 0x00, 0x70, 0x00, 0xe0, 0x3f, 0x00, 0x38, 0x00, 0xc0, 0x7f, 0x00,
   0x1c, 0x00, 0x80, 0xff, 0x00, 0x0e, 0x00, 0x00, 0xff, 0x01, 0x06, 0x00,
   0x00, 0xfe, 0x01, 0x00, 0x00, 0x00, 0x00, 0x00};
