#define Y_width 8
#define Y_height 8
static unsigned char Y_bits[] = {
   0x66, 0x66, 0x66, 0x3c, 0x18, 0x18, 0x18, 0x00};
