#define y_width 8
#define y_height 8
static unsigned char y_bits[] = {
   0x00, 0x00, 0x66, 0x66, 0x66, 0x7c, 0x30, 0x1e};
