#define z_width 8
#define z_height 8
static unsigned char z_bits[] = {
   0x00, 0x00, 0x7e, 0x30, 0x18, 0x0c, 0x7e, 0x00};
