#define Z_width 8
#define Z_height 8
static unsigned char Z_bits[] = {
   0x7e, 0x60, 0x30, 0x18, 0x0c, 0x06, 0x7e, 0x00};
