#define zero_width 8
#define zero_height 8
static unsigned char zero_bits[] = {
   0x3c, 0x66, 0x76, 0x6e, 0x66, 0x66, 0x3c, 0x00};
